inDegrees=no
num_controls=7
num_derivatives=13
num_iterations=128
num_multipliers=7
num_parameters=0
num_slacks=7
num_states=26
objective=5.452161
objective_accelerations=0.533226
objective_balance=0.108675
objective_effort=0.384966
objective_height=4.363756
objective_ligament=0.061538
solver_duration=1456.697432
status=Solve_Succeeded
success=true
DataType=double
version=3
OpenSimVersion=4.4-2022-07-23-0e9fedc
endheader
time	/jointset/ground_pelvis/pelvis_tilt/value	/jointset/ground_pelvis/pelvis_tx/value	/jointset/ground_pelvis/pelvis_ty/value	/jointset/hip_l/hip_flexion_l/value	/jointset/hip_l/hip_adduction_l/value	/jointset/hip_l/hip_rotation_l/value	/jointset/back/lumbar_extension/value	/jointset/patellofemoral_l/patellar_flexion_l/value	/jointset/knee_l/knee_flexion_l/value	/jointset/knee_l/knee_adduction_l/value	/jointset/knee_l/knee_rotation_l/value	/jointset/ankle_l/ankle_angle_l/value	/jointset/subtalar_l/subtalar_angle_l/value	/jointset/ground_pelvis/pelvis_tilt/speed	/jointset/ground_pelvis/pelvis_tx/speed	/jointset/ground_pelvis/pelvis_ty/speed	/jointset/hip_l/hip_flexion_l/speed	/jointset/hip_l/hip_adduction_l/speed	/jointset/hip_l/hip_rotation_l/speed	/jointset/back/lumbar_extension/speed	/jointset/patellofemoral_l/patellar_flexion_l/speed	/jointset/knee_l/knee_flexion_l/speed	/jointset/knee_l/knee_adduction_l/speed	/jointset/knee_l/knee_rotation_l/speed	/jointset/ankle_l/ankle_angle_l/speed	/jointset/subtalar_l/subtalar_angle_l/speed	/forceset/tau_hip_flexion_l	/forceset/tau_hip_adduction_l	/forceset/tau_hip_rotation_l	/forceset/tau_knee_flexion_l	/forceset/tau_ankle_angle_l	/forceset/tau_subtalar_angle_l	/forceset/tau_lumbar_extension	lambda_cid13_p0	lambda_cid13_p1	lambda_cid13_p2	lambda_cid13_p3	lambda_cid13_p4	lambda_cid13_p5	lambda_cid14_p0	/jointset/ground_pelvis/pelvis_tilt/accel	/jointset/ground_pelvis/pelvis_tx/accel	/jointset/ground_pelvis/pelvis_ty/accel	/jointset/hip_l/hip_flexion_l/accel	/jointset/hip_l/hip_adduction_l/accel	/jointset/hip_l/hip_rotation_l/accel	/jointset/back/lumbar_extension/accel	/jointset/patellofemoral_l/patellar_flexion_l/accel	/jointset/knee_l/knee_flexion_l/accel	/jointset/knee_l/knee_adduction_l/accel	/jointset/knee_l/knee_rotation_l/accel	/jointset/ankle_l/ankle_angle_l/accel	/jointset/subtalar_l/subtalar_angle_l/accel	gamma_cid13_p0	gamma_cid13_p1	gamma_cid13_p2	gamma_cid13_p3	gamma_cid13_p4	gamma_cid13_p5	gamma_cid14_p0
0	-0.1601680712548658	0.05857487176324262	0.8979987645578209	0.3774920279260975	-0.2591367812739914	-0.2729742049108256	-0.0126506700172305	0.03223623128432766	0.03223623128433527	-0.1745329160765829	0.1745309621044402	-0.04231376238535053	-0.009261164006319343	0	0	0	0	0	0	0	0	0	0	0	0	0	0.1551636362876269	-0.09522972590692862	-0.05552122233305495	-0.3336788807225922	0.3646737445702248	-0.0452325515132559	-0.09333962790408983	74.99764057509522	0.7032310310956646	6.12156729756683	-26.24325197950428	-594.548741237848	-78.50301501465079	-39.07473998333325	-3.521644946567384	-1.509004122894416	-0.9470338873120864	10.65355153465097	-1.208328738537807	3.007305323018601	-5.344396669168633	8.712469115414613	8.712469115414269	0.07572407744283235	0.04490362464485803	1.709320806190216	-0.8387808410699824	-2.635325702517576e-08	7.91417226104368e-08	6.242431895622647e-08	3.325076146827338e-09	4.004126331020666e-08	-2.836818538502284e-09	-8.914549991582411e-09
0.01	-0.1603379624072542	0.05850063879461866	0.8979525325620511	0.3780110602417966	-0.259196827609611	-0.2728241404230545	-0.01291871321564323	0.03266224103582187	0.03266224103572717	-0.1745307694314017	0.1745303354978848	-0.04223066350679029	-0.009303272327346915	-0.03378154876752694	-0.01475630086763653	-0.009208525587942024	0.1032907233331215	-0.01195033402878299	0.02989361950735767	-0.05326716458920833	0.08485965686348391	0.08485965686346809	0.000432266836278837	-0.0001246311688288645	0.01659939828222477	-0.008368082347146248	0.1498305133975233	-0.1046401733059441	-0.05444469883730914	-0.3276350400509507	0.3547411693413823	-0.03187321545684414	-0.08895475095435643	72.3004664305183	-4.355596693009546	6.618674569140938	-25.35518289775221	-595.580196857258	-88.26097666060974	-39.08691602056993	-3.276914087113691	-1.445398474521221	-0.9020728514441124	10.08946592190475	-1.179564614898566	2.962491769007716	-5.266655089007997	8.321371741846599	8.321371741844423	0.02743882495218941	-0.0410483865730097	1.63219096465476	-0.8278040267619174	-5.212378254176216e-08	8.894462386582592e-08	1.038957122350182e-07	2.219502020235193e-08	-7.338039498872593e-08	-8.06423281335178e-09	-1.704355788788264e-08
0.02	-0.1608397698963661	0.05828155173615439	0.8978153531190183	0.3795475264286191	-0.259374613061489	-0.2723787194392913	-0.01370918380701078	0.03392657890978837	0.03392657890977422	-0.1745242079500202	0.1745284822000849	-0.04198218232032297	-0.00942745789089096	-0.06638326734571101	-0.02897081796805901	-0.01818948945257884	0.203486774236739	-0.02354782325157366	0.0590712991912198	-0.1044854785868454	0.1676656245282168	0.1676656245281798	0.0008829672017837259	-0.000245338294710827	0.03307646158110081	-0.01641544850331061	0.1444973905066562	-0.1140506207049885	-0.05336817534063035	-0.3215911993799001	0.3448085941123731	-0.01851387940051104	-0.08456987400511955	69.6759388210251	-9.428440029786827	7.11950111940211	-24.62238896443196	-595.5229527723646	-97.91628138424248	-39.12292266968858	-3.285678908698883	-1.400647369451398	-0.9015215426510713	10.03461704874985	-1.13775977733991	2.864117358319507	-4.934626550854204	8.301731275664364	8.301731275662945	0.07941078328690165	0.04568843323427224	1.684853809520557	-0.7746376028741423	-7.789430805834855e-08	9.874752512121504e-08	1.453671055138099e-07	4.106496425787652e-08	-1.868020532876585e-07	-1.329164708820128e-08	-2.517256578418287e-08
0.03	-0.1616621194327941	0.05792273489000817	0.8975892855164891	0.3820713645943516	-0.259666224533264	-0.2716452261035448	-0.01500125954794426	0.03600857008900681	0.03600857008898443	-0.174512634589441	0.1745254777827533	-0.04156998816191202	-0.009630270318367752	-0.0979061770965886	-0.04272997982116768	-0.02700329076887044	0.3008116769384183	-0.03468302135385035	0.08749266094787927	-0.1535810026847814	0.2483599751679599	0.2483599751679122	0.001462598747336541	-0.0003536240478043078	0.04929232907985476	-0.0240757681985875	0.137737302247759	-0.1066780407907229	-0.05216410392415398	-0.3136884544051521	0.3353261613978022	-0.0208539460118708	-0.07927565020399453	66.53768623131782	-8.026012511973834	7.082497514619011	-22.85479566868531	-595.6128715002076	-93.97329994995056	-39.18161352350257	-3.058535299136863	-1.354156587559461	-0.8682362021537622	9.511037994811455	-1.087705154207211	2.810919185572756	-4.844715301708781	7.89739660368707	7.897396603686263	0.05190433013400339	-0.03881783117861159	1.579441570871401	-0.7510701987547634	-9.386466557843364e-08	1.1244644699108e-07	1.608814714161673e-07	5.662867071786445e-08	-2.76076517206441e-07	-2.157671366364927e-09	-2.812710723975661e-08
0.04	-0.1627942857248941	0.05742820522646729	0.8972756945455885	0.3855543740099367	-0.2600664490515704	-0.2706315644300005	-0.01677383052233588	0.03888632670371957	0.03888632670372164	-0.1744943319154214	0.1745214443575965	-0.04099773765834928	-0.009907554151976987	-0.1283466184816437	-0.05611338144699277	-0.03569416312683375	0.3953210241974423	-0.04527043255756509	0.1151049667538682	-0.2005845252805246	0.3268187116300184	0.3268187116299677	0.002228829890646841	-0.0004511398647834649	0.0650877306113639	-0.03130972972988526	0.1309772139892387	-0.09930546087644329	-0.05096003250743589	-0.3057857094303177	0.3258437286832571	-0.02319401262321372	-0.07398142640255692	63.46719017238098	-6.633380861712848	7.044697308621664	-21.23784086971166	-594.705505230952	-89.92973832747496	-39.2616924759721	-3.069185235534361	-1.325495323994521	-0.8769357509854189	9.471505960218545	-1.028202397627819	2.702306168184978	-4.51622625041542	7.854608440127503	7.854608440127599	0.1167307028377588	0.047842420457576	1.600760616071701	-0.6893659700785802	-1.096329577790032e-07	1.26225699182893e-07	1.758606408777735e-07	7.212420733052173e-08	-3.648531008287257e-07	9.313652602825776e-09	-3.097495866562465e-08
